<svg xmlns="http://www.w3.org/2000/svg" viewBox="0 0 150.85924 137.79131"><title>yogenda_logo_color</title><g id="Layer_2" data-name="Layer 2"><g id="Layer_1-2" data-name="Layer 1"><path d="M6.15013,88.77393a1.17174,1.17174,0,0,1,1.22363.82764l2.66406,6.69531c.14355.32422.35938.32422.50391,0l2.66406-6.69531a1.17174,1.17174,0,0,1,1.22363-.82764h5.14746c.82715,0,1.1875.50391.82715,1.25977l-6.44238,14.39844a.90781.90781,0,0,0-.07227.43164v8.02686a.96952.96952,0,0,1-1.08008,1.08008H7.77025a.98506.98506,0,0,1-1.08008-1.08008v-8.02686a.90781.90781,0,0,0-.07227-.43164L.13939,90.03369c-.36035-.75586,0-1.25977.82715-1.25977Z" transform="translate(0)" fill="#231f20"/><path d="M40.60032,105.87158c0,2.376-.50391,8.74707-9.03516,8.74707-8.53027,0-9.03418-6.37109-9.03418-8.74707V96.873c0-2.376.50391-8.74707,9.03418-8.74707,8.53125,0,9.03516,6.37109,9.03516,8.74707Zm-6.19141-7.09082c0-2.772-.17969-4.46338-2.84375-4.46338-2.66309,0-2.84375,1.69141-2.84375,4.46338v5.18311c0,2.772.18066,4.46338,2.84375,4.46338,2.66406,0,2.84375-1.69141,2.84375-4.46338Z" transform="translate(0)" fill="#231f20"/><path d="M43.84251,96.873c0-2.376.50391-8.74707,9.03418-8.74707,7.55957,0,8.81934,4.96729,8.999,7.7749a1.057,1.057,0,0,1-.93555,1.188l-4.06738.8999c-.71973.144-1.11621-.18018-1.18848-.936-.14355-1.72754-.75586-2.73535-2.80762-2.73535-2.66309,0-2.84375,1.69141-2.84375,4.46338v5.18311c0,2.772.18066,4.46338,2.84375,4.46338,2.66406,0,2.84375-1.69141,2.84375-3.45557H53.63255a.98464.98464,0,0,1-1.0791-1.07959v-2.87988a.96867.96867,0,0,1,1.0791-1.07959h7.19922a.95458.95458,0,0,1,1.08008,1.07959v4.85938c0,2.376-.50391,8.74707-9.03516,8.74707-8.53027,0-9.03418-6.37109-9.03418-8.74707Z" transform="translate(0)" fill="#231f20"/><path d="M82.35911,88.77393a.95419.95419,0,0,1,1.08008,1.07959v4.03174a.96875.96875,0,0,1-1.08008,1.07959H73.64818a.969.969,0,0,0-1.0791,1.08008v1.15186a.98478.98478,0,0,0,1.0791,1.08008h5.58008a.95389.95389,0,0,1,1.0791,1.07959v4.03174a.96866.96866,0,0,1-1.0791,1.07959H73.64818a.96882.96882,0,0,0-1.0791,1.08008v1.15186a.98464.98464,0,0,0,1.0791,1.07959h8.71094a.95453.95453,0,0,1,1.08008,1.08008v4.03125a.95434.95434,0,0,1-1.08008,1.08008H67.24095a.98478.98478,0,0,1-1.0791-1.08008V89.85352a.96867.96867,0,0,1,1.0791-1.07959Z" transform="translate(0)" fill="#231f20"/><path d="M93.66478,88.77393a1.2434,1.2434,0,0,1,1.25977.82764l4.89551,11.98682c.14355.32373.43164.252.43164-.10791v-11.627a.96937.96937,0,0,1,1.08008-1.07959H105.363a.95458.95458,0,0,1,1.08008,1.07959v23.03711a.96952.96952,0,0,1-1.08008,1.08008h-5.291a1.24243,1.24243,0,0,1-1.25977-.82812l-4.89551-11.98633c-.14453-.32373-.43164-.252-.43164.10791v11.62646A.96952.96952,0,0,1,92.405,113.9707H88.37279a.98478.98478,0,0,1-1.0791-1.08008V89.85352a.96867.96867,0,0,1,1.0791-1.07959Z" transform="translate(0)" fill="#231f20"/><path d="M120.23216,88.77393c6.7666,0,8.998,2.73584,8.998,8.63867v7.8833c0,5.90332-2.23145,8.6748-8.998,8.6748h-8.02734a.98551.98551,0,0,1-1.08008-1.08008v-23.001a.99591.99591,0,0,1,1.08008-1.11572Zm.10742,19.00537c1.72754,0,2.5918-.2876,2.5918-2.44727V97.4126c0-2.23145-.86426-2.44775-2.5918-2.44775h-1.94336a.96932.96932,0,0,0-1.08008,1.08008v10.65479a.98492.98492,0,0,0,1.08008,1.07959Z" transform="translate(0)" fill="#231f20"/><path d="M150.65013,112.74707c0,.7915-.36035,1.22363-1.08008,1.22363H145.5388a.96952.96952,0,0,1-1.08008-1.08008v-3.13135a.95453.95453,0,0,0-1.08008-1.08008h-3.09473a.96932.96932,0,0,0-1.08008,1.08008v3.13135a.95473.95473,0,0,1-1.08008,1.08008h-4.03125c-.68457,0-1.08008-.43213-1.08008-1.22363V97.48486c0-4.53564.71973-9.35889,8.81836-9.35889,8.09961,0,8.81934,4.82324,8.81934,9.35889Zm-6.19141-15.26221c0-1.728-.252-2.5918-2.62793-2.5918-2.375,0-2.627.86377-2.627,2.5918v3.92334a.98506.98506,0,0,0,1.08008,1.08008h3.09473a.99562.99562,0,0,0,1.08008-1.11621Z" transform="translate(0)" fill="#231f20"/><path d="M93.12011,43.30212a18.48541,18.48541,0,0,0,3.683-5.18494c2.77637-5.94629,2.333-14.2832-3.89258-18.7168A9.83378,9.83378,0,0,0,85.85229,17.716a14.5962,14.5962,0,0,0,1.33264-5.85565,11.85986,11.85986,0,1,0-23.71973.001,14.975,14.975,0,0,0,1.27319,5.85382,9.84243,9.84243,0,0,0-7.033,1.69012C51.48571,23.834,51.04235,32.1709,53.81872,38.11719a18.522,18.522,0,0,0,3.68756,5.18854A12.50377,12.50377,0,0,0,59.6693,68.126c6.93433,0,12.79468-5.22565,15.658-8.31995,2.86768,3.09271,8.73608,8.31995,15.65356,8.31995a12.50348,12.50348,0,0,0,2.13928-24.82385ZM68.4652,11.86133a6.85986,6.85986,0,1,1,13.71973-.001c0,4.03162-3.356,8.11871-5.68774,10.47479q-.59656.51434-1.18628,1.08087c-.49121-.47394-.98816-.9093-1.48694-1.3269C71.525,19.76544,68.4652,15.91327,68.4652,11.86133ZM60.6,23.48242a4.83384,4.83384,0,0,1,2.85645-.88965c2.22852,0,4.68188,1.30835,6.88049,3.09912.84668.84827,1.60168,1.51935,2.15039,1.97736.32556.33569.6416.676.94177,1.01923a2.5013,2.5013,0,0,0,3.76367,0c.31006-.35425.63916-.70422.9762-1.05042.45837-.39813,1.07593-.96265,1.77136-1.65747,3.27271-2.77484,7.18286-4.5498,10.07568-2.50305,3.02246,2.15234,4.76758,7.14551,2.25586,12.52539a14.25918,14.25918,0,0,1-4.30371,5.19141c-.32031.24512-.64551.48926-.98535.74414-1.306.97839-2.877,2.15808-5.23218,4.20721a34.83981,34.83981,0,0,0-6.42517,5.35425,34.72053,34.72053,0,0,0-6.52747-5.4184c-2.31567-2.011-3.8667-3.1756-5.15894-4.144-.33984-.25488-.665-.498-.98437-.74316A14.26062,14.26062,0,0,1,58.35,36.002C55.83825,30.623,57.58337,25.62988,60.6,23.48242ZM59.6693,63.126a7.51025,7.51025,0,1,1,0-15.02051,12.26055,12.26055,0,0,1,6.189,2.04218c1.61462,1.41455,3.616,3.26019,6.21118,5.78918C69.95251,58.29852,64.97851,63.126,59.6693,63.126Zm31.31152,0c-5.30469,0-10.29883-4.85077-12.41113-7.20532,2.54553-2.47852,4.53857-4.31592,6.14844-5.72778a12.33249,12.33249,0,0,1,6.2627-2.0874,7.51025,7.51025,0,1,1,0,15.02051Z" transform="translate(0)" fill="#37a6de"/><path d="M5.46276,129.95831v5.26953H4.66v-5.26953H3.79088v-.64941H4.66v-.48437c0-1.82617,1.44043-1.88086,2.0791-1.88086v.64941c-.40723.02148-1.27637.02148-1.27637,1.30859v.40723H7.201v-2.22266h.81445v8.1416H7.201v-5.26953Z" transform="translate(0)" fill="#37a6de"/><path d="M10.787,132.49932a2.25485,2.25485,0,0,0,2.31055,2.18945,2.18913,2.18913,0,0,0,2.03516-1.2207h.84668a3.08579,3.08579,0,0,1-2.88184,1.9248,3.05733,3.05733,0,0,1-3.125-3.11328,3.10994,3.10994,0,1,1,6.20508.21973Zm4.58789-.64941a2.30748,2.30748,0,0,0-4.57715,0Z" transform="translate(0)" fill="#37a6de"/><path d="M19.36706,132.1917l-1.98047-2.88281h.99023l1.48535,2.27734,1.49609-2.27734H22.326l-1.96875,2.88281,2.0791,3.03613h-.99023l-1.584-2.3877-1.57324,2.3877H17.2987Z" transform="translate(0)" fill="#37a6de"/><path d="M24.12975,127.08624h.81445V128.22h-.81445Zm0,2.22266h.81445v5.91895h-.81445Z" transform="translate(0)" fill="#37a6de"/><path d="M27.35241,127.08624h.81445v3.41113a2.785,2.785,0,0,1,2.40918-1.35352,3.12523,3.12523,0,0,1-.02246,6.249,2.62421,2.62421,0,0,1-2.41992-1.38574v1.2207h-.78125Zm5.457,5.1709a2.3711,2.3711,0,1,0,0,.01172Z" transform="translate(0)" fill="#37a6de"/><path d="M35.6571,127.08624h.81445v8.1416H35.6571Z" transform="translate(0)" fill="#37a6de"/><path d="M39.23229,132.49932a2.25485,2.25485,0,0,0,2.31055,2.18945,2.18913,2.18913,0,0,0,2.03516-1.2207h.84668a3.08579,3.08579,0,0,1-2.88184,1.9248,3.05733,3.05733,0,0,1-3.125-3.11328,3.10994,3.10994,0,1,1,6.20508.21973Zm4.58789-.64941a2.30748,2.30748,0,0,0-4.57715,0Z" transform="translate(0)" fill="#37a6de"/><path d="M52.17858,135.11749l-2.28809-5.80859h.86914L52.619,134.095l1.91406-4.78613h.8916L52.04674,137.472h-.87988Z" transform="translate(0)" fill="#37a6de"/><path d="M56.43542,132.25713a3.11918,3.11918,0,1,1,0,.01172Zm.80371.02246a2.37192,2.37192,0,1,0,0-.01074Z" transform="translate(0)" fill="#37a6de"/><path d="M70.68151,134.5462a3.03122,3.03122,0,0,1-.87988,2.332,3.3074,3.3074,0,0,1-2.24414.91309,2.99567,2.99567,0,0,1-2.92676-1.91406h.93555a2.27074,2.27074,0,0,0,.7041.78125,2.33332,2.33332,0,0,0,1.30859.42871,2.29253,2.29253,0,0,0,2.28809-2.35449v-.75879a2.55785,2.55785,0,0,1-2.38672,1.41895,3.12468,3.12468,0,0,1,0-6.249,2.61935,2.61935,0,0,1,2.39844,1.38672v-1.22168h.80273ZM65.203,132.26885a2.30028,2.30028,0,0,0,2.376,2.36523,2.269,2.269,0,0,0,1.66113-.68262,2.479,2.479,0,0,0,.66016-1.67187,2.55853,2.55853,0,0,0-.53906-1.55176,2.18128,2.18128,0,0,0-1.80371-.8252,2.30257,2.30257,0,0,0-2.35449,2.35449Z" transform="translate(0)" fill="#37a6de"/><path d="M79.02038,135.22784h-.81445v-1.2207a2.62714,2.62714,0,0,1-2.4209,1.38574,3.125,3.125,0,0,1,0-6.249,2.60078,2.60078,0,0,1,2.4209,1.4082v-1.24316h.81445Zm-5.501-2.94824a2.31138,2.31138,0,0,0,2.376,2.35449,2.21626,2.21626,0,0,0,2.13477-1.44141,2.2685,2.2685,0,0,0,.19727-.93555,2.104,2.104,0,0,0-.18652-.94629,2.28359,2.28359,0,0,0-2.167-1.41895,2.32135,2.32135,0,0,0-2.35449,2.377Z" transform="translate(0)" fill="#37a6de"/><path d="M88.08288,130.79424a.92742.92742,0,0,0-1.01172-.97949.9371.9371,0,0,0-1.02344.957c.02246.56152.45117.793,1.166,1.002.84766.23047,1.79395.47266,1.83789,1.73828a1.84081,1.84081,0,0,1-1.959,1.88086,1.89926,1.89926,0,0,1-2.02344-1.84863h.80273a1.17158,1.17158,0,0,0,1.23242,1.17773,1.0951,1.0951,0,0,0,1.14355-1.11133c-.02148-.6709-.46191-.94629-1.48437-1.24316-.84766-.25293-1.50781-.59375-1.5293-1.5293a1.706,1.706,0,0,1,1.84766-1.69434,1.67759,1.67759,0,0,1,1.80469,1.65039Z" transform="translate(0)" fill="#37a6de"/><path d="M96.95983,133.22588a3.1465,3.1465,0,1,1,0-1.87109h-.83594a2.34712,2.34712,0,0,0-3.81738-.792,2.42874,2.42874,0,0,0-.6709,1.70605,2.30007,2.30007,0,0,0,2.332,2.36523,2.23376,2.23376,0,0,0,2.14551-1.4082Z" transform="translate(0)" fill="#37a6de"/><path d="M98.89538,127.08624h.81445v3.19043a2.23341,2.23341,0,0,1,2.1123-1.13281,2.31036,2.31036,0,0,1,1.958.81445,3.29931,3.29931,0,0,1,.56152,2.0791v3.19043H103.538v-3.15723a2.528,2.528,0,0,0-.42871-1.5625,1.78911,1.78911,0,0,0-1.48535-.60547,1.84569,1.84569,0,0,0-1.44141.584,2.01176,2.01176,0,0,0-.47266,1.375v3.36621h-.81445Z" transform="translate(0)" fill="#37a6de"/><path d="M107.09069,132.49932a2.25427,2.25427,0,0,0,2.31055,2.18945,2.18913,2.18913,0,0,0,2.03516-1.2207h.84668a3.08579,3.08579,0,0,1-2.88184,1.9248,3.05733,3.05733,0,0,1-3.125-3.11328,3.10994,3.10994,0,1,1,6.20508.21973Zm4.58789-.64941a2.30748,2.30748,0,0,0-4.57715,0Z" transform="translate(0)" fill="#37a6de"/><path d="M120.37878,135.22784h-.78125v-1.2207a2.6198,2.6198,0,0,1-2.44238,1.38574,3.12535,3.12535,0,0,1-.01074-6.249,2.60374,2.60374,0,0,1,2.41992,1.36426v-3.42187h.81445Zm-5.47852-2.959a2.30683,2.30683,0,0,0,2.376,2.36523,2.35187,2.35187,0,0,0,1.68359-.69336,2.32545,2.32545,0,0,0,.66016-1.70508,2.269,2.269,0,0,0-.68262-1.66113,2.372,2.372,0,0,0-4.03711,1.68262Z" transform="translate(0)" fill="#37a6de"/><path d="M128.25573,135.22784h-.77051V134.1712a2.20678,2.20678,0,0,1-2.18945,1.22168c-1.84766-.0332-2.49707-1.28711-2.49707-2.72852v-3.35547h.80273v3.20117c0,1.27637.57227,2.13477,1.90332,2.124a1.79961,1.79961,0,0,0,1.93652-1.98047v-3.34473h.81445Z" transform="translate(0)" fill="#37a6de"/><path d="M130.663,127.08624h.81445v8.1416H130.663Z" transform="translate(0)" fill="#37a6de"/><path d="M133.87487,127.08624h.81445V128.22h-.81445Zm0,2.22266h.81445v5.91895h-.81445Z" transform="translate(0)" fill="#37a6de"/><path d="M137.09753,129.30889h.77051c0,.33008,0,.66016-.01172,1.05664a2.21877,2.21877,0,0,1,2.20117-1.22168c1.83691.02246,2.48633,1.27637,2.48633,2.71777v3.36621h-.80371v-3.20117c0-1.27637-.57227-2.14551-1.90332-2.124a1.79692,1.79692,0,0,0-1.9248,1.98047v3.34473h-.81445Z" transform="translate(0)" fill="#37a6de"/><path d="M150.85924,134.5462a3.03122,3.03122,0,0,1-.87988,2.332,3.3074,3.3074,0,0,1-2.24414.91309,2.99567,2.99567,0,0,1-2.92676-1.91406h.93555a2.27074,2.27074,0,0,0,.7041.78125,2.33332,2.33332,0,0,0,1.30859.42871,2.29253,2.29253,0,0,0,2.28809-2.35449v-.75879a2.55785,2.55785,0,0,1-2.38672,1.41895,3.12468,3.12468,0,0,1,0-6.249,2.61935,2.61935,0,0,1,2.39844,1.38672v-1.22168h.80273Zm-5.47852-2.27734a2.30028,2.30028,0,0,0,2.376,2.36523,2.269,2.269,0,0,0,1.66113-.68262,2.479,2.479,0,0,0,.66016-1.67187,2.55853,2.55853,0,0,0-.53906-1.55176,2.18128,2.18128,0,0,0-1.80371-.8252,2.30257,2.30257,0,0,0-2.35449,2.35449Z" transform="translate(0)" fill="#37a6de"/></g></g></svg>